<mxfile host="app.diagrams.net" modified="2023-07-01T14:02:07.551Z" agent="Mozilla/5.0 (Windows NT 10.0; Win64; x64) AppleWebKit/537.36 (KHTML, like Gecko) Chrome/114.0.0.0 Safari/537.36" etag="6lTBX0l61_vTsEeMRzm4" version="21.5.0" type="github">
  <diagram id="6a731a19-8d31-9384-78a2-239565b7b9f0" name="Page-1">
    <mxGraphModel dx="1202" dy="638" grid="1" gridSize="10" guides="1" tooltips="1" connect="1" arrows="1" fold="1" page="1" pageScale="1" pageWidth="1169" pageHeight="827" background="none" math="0" shadow="0">
      <root>
        <mxCell id="0" />
        <mxCell id="1" parent="0" />
        <mxCell id="1353" value="开始页面" style="ellipse;whiteSpace=wrap;html=1;shadow=0;fontFamily=Helvetica;fontSize=20;fontColor=#ffffff;align=center;strokeWidth=3;fillColor=#d80073;strokeColor=#A50040;" parent="1" vertex="1">
          <mxGeometry x="1160" y="650" width="120" height="120" as="geometry" />
        </mxCell>
        <mxCell id="1354" value="游戏页面" style="ellipse;whiteSpace=wrap;html=1;shadow=0;fontFamily=Helvetica;fontSize=20;fontColor=#ffffff;align=center;strokeWidth=3;fillColor=#d80073;strokeColor=#A50040;" parent="1" vertex="1">
          <mxGeometry x="1150" y="920" width="120" height="120" as="geometry" />
        </mxCell>
        <mxCell id="1362" style="endArrow=none;strokeWidth=6;strokeColor=#A50040;html=1;fillColor=#d80073;" parent="1" source="1515" target="1353" edge="1">
          <mxGeometry relative="1" as="geometry" />
        </mxCell>
        <mxCell id="1364" style="endArrow=none;strokeWidth=6;strokeColor=#A50040;html=1;fillColor=#d80073;" parent="1" source="1515" target="1354" edge="1">
          <mxGeometry relative="1" as="geometry" />
        </mxCell>
        <mxCell id="1438" value="开始游戏" style="rounded=1;fillColor=#60a917;strokeColor=#2D7600;strokeWidth=3;shadow=0;html=1;fontColor=#ffffff;" parent="1" vertex="1">
          <mxGeometry x="1130" y="460" width="120" height="40" as="geometry" />
        </mxCell>
        <mxCell id="1439" value="技能" style="rounded=1;fillColor=#60a917;strokeColor=#2D7600;strokeWidth=3;shadow=0;html=1;fontColor=#ffffff;fillStyle=auto;" parent="1" vertex="1">
          <mxGeometry x="1310" y="450" width="120" height="40" as="geometry" />
        </mxCell>
        <mxCell id="1440" value="图鉴" style="rounded=1;fillColor=#60a917;strokeColor=#2D7600;strokeWidth=3;shadow=0;html=1;fontColor=#ffffff;" parent="1" vertex="1">
          <mxGeometry x="1530" y="450" width="120" height="40" as="geometry" />
        </mxCell>
        <mxCell id="1441" value="选项" style="rounded=1;fillColor=#60a917;strokeColor=#2D7600;strokeWidth=3;shadow=0;html=1;fontColor=#ffffff;" parent="1" vertex="1">
          <mxGeometry x="1550" y="700" width="120" height="40" as="geometry" />
        </mxCell>
        <mxCell id="1442" value="成就" style="rounded=1;fillColor=#60a917;strokeColor=#2D7600;strokeWidth=3;shadow=0;html=1;fontColor=#ffffff;" parent="1" vertex="1">
          <mxGeometry x="1610" y="530" width="120" height="40" as="geometry" />
        </mxCell>
        <mxCell id="1443" value="退出游戏" style="rounded=1;fillColor=#60a917;strokeColor=#2D7600;strokeWidth=3;shadow=0;html=1;fontColor=#ffffff;" parent="1" vertex="1">
          <mxGeometry x="960" y="500" width="120" height="40" as="geometry" />
        </mxCell>
        <mxCell id="1449" value="" style="edgeStyle=none;endArrow=none;strokeWidth=3;strokeColor=#2D7600;html=1;fillColor=#60a917;" parent="1" source="1353" target="1438" edge="1">
          <mxGeometry x="-24" y="196.5" width="100" height="100" as="geometry">
            <mxPoint x="-549" y="-230" as="sourcePoint" />
            <mxPoint x="-449" y="-330" as="targetPoint" />
          </mxGeometry>
        </mxCell>
        <mxCell id="1450" value="" style="edgeStyle=none;endArrow=none;strokeWidth=3;strokeColor=#2D7600;html=1;fillColor=#60a917;" parent="1" source="1353" target="1439" edge="1">
          <mxGeometry x="-24" y="196.5" width="100" height="100" as="geometry">
            <mxPoint x="-549" y="-230" as="sourcePoint" />
            <mxPoint x="-449" y="-330" as="targetPoint" />
          </mxGeometry>
        </mxCell>
        <mxCell id="1451" value="" style="edgeStyle=none;endArrow=none;strokeWidth=3;strokeColor=#2D7600;html=1;fillColor=#60a917;" parent="1" source="1353" target="1440" edge="1">
          <mxGeometry x="-24" y="196.5" width="100" height="100" as="geometry">
            <mxPoint x="-549" y="-230" as="sourcePoint" />
            <mxPoint x="-449" y="-330" as="targetPoint" />
          </mxGeometry>
        </mxCell>
        <mxCell id="1452" value="" style="edgeStyle=none;endArrow=none;strokeWidth=3;strokeColor=#2D7600;html=1;fillColor=#60a917;" parent="1" source="1353" target="1442" edge="1">
          <mxGeometry x="-24" y="196.5" width="100" height="100" as="geometry">
            <mxPoint x="-549" y="-230" as="sourcePoint" />
            <mxPoint x="-449" y="-330" as="targetPoint" />
          </mxGeometry>
        </mxCell>
        <mxCell id="1453" value="" style="edgeStyle=none;endArrow=none;strokeWidth=3;strokeColor=#2D7600;html=1;fillColor=#60a917;" parent="1" source="1353" target="1441" edge="1">
          <mxGeometry x="-24" y="196.5" width="100" height="100" as="geometry">
            <mxPoint x="-549" y="-230" as="sourcePoint" />
            <mxPoint x="-449" y="-330" as="targetPoint" />
          </mxGeometry>
        </mxCell>
        <mxCell id="1454" value="" style="edgeStyle=none;endArrow=none;strokeWidth=3;strokeColor=#2D7600;html=1;fillColor=#60a917;" parent="1" source="1353" target="1443" edge="1">
          <mxGeometry x="-24" y="196.5" width="100" height="100" as="geometry">
            <mxPoint x="-549" y="-230" as="sourcePoint" />
            <mxPoint x="-449" y="-330" as="targetPoint" />
          </mxGeometry>
        </mxCell>
        <mxCell id="1457" value="玩家" style="rounded=1;fillColor=#60a917;strokeColor=#2D7600;strokeWidth=3;shadow=0;html=1;fontColor=#ffffff;" parent="1" vertex="1">
          <mxGeometry x="1090" y="1280" width="120" height="40" as="geometry" />
        </mxCell>
        <mxCell id="1458" value="已获得技能" style="rounded=1;fillColor=#60a917;strokeColor=#2D7600;strokeWidth=3;shadow=0;html=1;fontColor=#ffffff;" parent="1" vertex="1">
          <mxGeometry x="1240" y="1280" width="120" height="40" as="geometry" />
        </mxCell>
        <mxCell id="EpUKWXdDwevD_ZlKv4YP-1564" value="" style="edgeStyle=orthogonalEdgeStyle;rounded=0;orthogonalLoop=1;jettySize=auto;html=1;" edge="1" parent="1" source="1459" target="EpUKWXdDwevD_ZlKv4YP-1563">
          <mxGeometry relative="1" as="geometry" />
        </mxCell>
        <mxCell id="EpUKWXdDwevD_ZlKv4YP-1566" value="" style="edgeStyle=orthogonalEdgeStyle;rounded=0;orthogonalLoop=1;jettySize=auto;html=1;" edge="1" parent="1" source="1459" target="EpUKWXdDwevD_ZlKv4YP-1565">
          <mxGeometry relative="1" as="geometry" />
        </mxCell>
        <mxCell id="EpUKWXdDwevD_ZlKv4YP-1567" value="" style="edgeStyle=orthogonalEdgeStyle;rounded=0;orthogonalLoop=1;jettySize=auto;html=1;" edge="1" parent="1" source="1459" target="EpUKWXdDwevD_ZlKv4YP-1565">
          <mxGeometry relative="1" as="geometry" />
        </mxCell>
        <mxCell id="EpUKWXdDwevD_ZlKv4YP-1569" value="" style="edgeStyle=orthogonalEdgeStyle;rounded=0;orthogonalLoop=1;jettySize=auto;html=1;" edge="1" parent="1" source="1459" target="EpUKWXdDwevD_ZlKv4YP-1568">
          <mxGeometry relative="1" as="geometry" />
        </mxCell>
        <mxCell id="1459" value="敌人" style="rounded=1;fillColor=#60a917;strokeColor=#2D7600;strokeWidth=3;shadow=0;html=1;fontColor=#ffffff;" parent="1" vertex="1">
          <mxGeometry x="1390" y="1270" width="120" height="40" as="geometry" />
        </mxCell>
        <mxCell id="1460" value="地图" style="rounded=1;fillColor=#60a917;strokeColor=#2D7600;strokeWidth=3;shadow=0;html=1;fontColor=#ffffff;" parent="1" vertex="1">
          <mxGeometry x="1690" y="1110" width="120" height="40" as="geometry" />
        </mxCell>
        <mxCell id="1461" value="经验条" style="rounded=1;fillColor=#60a917;strokeColor=#2D7600;strokeWidth=3;shadow=0;html=1;fontColor=#ffffff;" parent="1" vertex="1">
          <mxGeometry x="1550" y="1270" width="120" height="40" as="geometry" />
        </mxCell>
        <mxCell id="1462" value="倒计时&lt;br&gt;（时间结束后，玩家胜利）" style="rounded=1;fillColor=#60a917;strokeColor=#2D7600;strokeWidth=3;shadow=0;html=1;fontColor=#ffffff;" parent="1" vertex="1">
          <mxGeometry x="1550" y="980" width="210" height="40" as="geometry" />
        </mxCell>
        <mxCell id="1463" value="" style="edgeStyle=none;endArrow=none;strokeWidth=3;strokeColor=#2D7600;html=1;fillColor=#60a917;" parent="1" source="1354" target="1460" edge="1">
          <mxGeometry x="251" y="-103.5" width="100" height="100" as="geometry">
            <mxPoint x="416" y="-414" as="sourcePoint" />
            <mxPoint x="516" y="-514" as="targetPoint" />
          </mxGeometry>
        </mxCell>
        <mxCell id="1464" value="" style="edgeStyle=none;endArrow=none;strokeWidth=3;strokeColor=#2D7600;html=1;fillColor=#60a917;" parent="1" source="1354" target="1461" edge="1">
          <mxGeometry x="251" y="-103.5" width="100" height="100" as="geometry">
            <mxPoint x="416" y="-414" as="sourcePoint" />
            <mxPoint x="516" y="-514" as="targetPoint" />
          </mxGeometry>
        </mxCell>
        <mxCell id="1465" value="" style="edgeStyle=none;endArrow=none;strokeWidth=3;strokeColor=#2D7600;html=1;fillColor=#60a917;" parent="1" source="1354" target="1458" edge="1">
          <mxGeometry x="251" y="-103.5" width="100" height="100" as="geometry">
            <mxPoint x="416" y="-414" as="sourcePoint" />
            <mxPoint x="516" y="-514" as="targetPoint" />
          </mxGeometry>
        </mxCell>
        <mxCell id="1466" value="" style="edgeStyle=none;endArrow=none;strokeWidth=3;strokeColor=#2D7600;html=1;fillColor=#60a917;" parent="1" source="1354" target="1462" edge="1">
          <mxGeometry x="251" y="-103.5" width="100" height="100" as="geometry">
            <mxPoint x="416" y="-414" as="sourcePoint" />
            <mxPoint x="516" y="-514" as="targetPoint" />
          </mxGeometry>
        </mxCell>
        <mxCell id="1467" value="" style="edgeStyle=none;endArrow=none;strokeWidth=3;strokeColor=#2D7600;html=1;fillColor=#60a917;" parent="1" source="1354" target="1457" edge="1">
          <mxGeometry x="251" y="-103.5" width="100" height="100" as="geometry">
            <mxPoint x="416" y="-414" as="sourcePoint" />
            <mxPoint x="516" y="-514" as="targetPoint" />
          </mxGeometry>
        </mxCell>
        <mxCell id="1515" value="Survivor&lt;br&gt;Game" style="ellipse;whiteSpace=wrap;html=1;shadow=0;fontFamily=Helvetica;fontSize=30;fontColor=#2F5B7C;align=center;strokeColor=#2F5B7C;strokeWidth=6;fillColor=#FFFFFF;fontStyle=1;gradientColor=none;" parent="1" vertex="1">
          <mxGeometry x="630" y="690" width="270" height="270" as="geometry" />
        </mxCell>
        <mxCell id="1541" value="" style="edgeStyle=none;endArrow=none;strokeWidth=3;strokeColor=#2D7600;html=1;fillColor=#60a917;" parent="1" source="1354" target="1459" edge="1">
          <mxGeometry x="-1174" y="-408.5" width="100" height="100" as="geometry">
            <mxPoint x="-1009" y="-719" as="sourcePoint" />
            <mxPoint x="-909" y="-819" as="targetPoint" />
          </mxGeometry>
        </mxCell>
        <mxCell id="EpUKWXdDwevD_ZlKv4YP-1543" value="升级选择弹窗&lt;br&gt;（有多个选择框，点击选择技能）" style="rounded=1;fillColor=#60a917;strokeColor=#2D7600;strokeWidth=3;shadow=0;html=1;fontColor=#ffffff;" vertex="1" parent="1">
          <mxGeometry x="1720" y="1270" width="190" height="50" as="geometry" />
        </mxCell>
        <mxCell id="EpUKWXdDwevD_ZlKv4YP-1544" value="" style="edgeStyle=none;endArrow=none;strokeWidth=3;strokeColor=#2D7600;html=1;entryX=0.5;entryY=0;entryDx=0;entryDy=0;exitX=0.903;exitY=0.793;exitDx=0;exitDy=0;exitPerimeter=0;fillColor=#60a917;" edge="1" parent="1" source="1354" target="EpUKWXdDwevD_ZlKv4YP-1543">
          <mxGeometry x="251" y="-103.5" width="100" height="100" as="geometry">
            <mxPoint x="1944" y="891" as="sourcePoint" />
            <mxPoint x="1941" y="957" as="targetPoint" />
          </mxGeometry>
        </mxCell>
        <mxCell id="EpUKWXdDwevD_ZlKv4YP-1559" value="" style="edgeStyle=orthogonalEdgeStyle;rounded=0;orthogonalLoop=1;jettySize=auto;html=1;" edge="1" parent="1" source="EpUKWXdDwevD_ZlKv4YP-1545" target="EpUKWXdDwevD_ZlKv4YP-1558">
          <mxGeometry relative="1" as="geometry" />
        </mxCell>
        <mxCell id="EpUKWXdDwevD_ZlKv4YP-1545" value="角色信息弹窗" style="rounded=1;fillColor=#60a917;strokeColor=#2D7600;strokeWidth=3;shadow=0;html=1;fontColor=#ffffff;" vertex="1" parent="1">
          <mxGeometry x="910" y="1270" width="120" height="40" as="geometry" />
        </mxCell>
        <mxCell id="EpUKWXdDwevD_ZlKv4YP-1546" value="" style="edgeStyle=none;endArrow=none;strokeWidth=3;strokeColor=#2D7600;html=1;entryX=0.5;entryY=0;entryDx=0;entryDy=0;exitX=0;exitY=0.5;exitDx=0;exitDy=0;fillColor=#60a917;" edge="1" parent="1" source="1354" target="EpUKWXdDwevD_ZlKv4YP-1545">
          <mxGeometry x="251" y="-103.5" width="100" height="100" as="geometry">
            <mxPoint x="1985" y="876" as="sourcePoint" />
            <mxPoint x="2066" y="970" as="targetPoint" />
          </mxGeometry>
        </mxCell>
        <mxCell id="EpUKWXdDwevD_ZlKv4YP-1558" value="等级、血量、防御、移动速度、&lt;br&gt;攻击力、攻击速度、攻击范围、暴击率、暴击伤害、&lt;br&gt;冷却速度、掉落率、&lt;br&gt;" style="rounded=1;fillColor=#1ba1e2;strokeColor=#006EAF;strokeWidth=3;shadow=0;html=1;fontColor=#ffffff;" vertex="1" parent="1">
          <mxGeometry x="560" y="1410" width="290" height="110" as="geometry" />
        </mxCell>
        <mxCell id="EpUKWXdDwevD_ZlKv4YP-1563" value="出现在玩家一定范围内，&lt;br&gt;可能多个形成一个环形包围" style="rounded=1;fillColor=#1ba1e2;strokeColor=#006EAF;strokeWidth=3;shadow=0;html=1;fontColor=#ffffff;" vertex="1" parent="1">
          <mxGeometry x="1130" y="1490" width="280" height="130" as="geometry" />
        </mxCell>
        <mxCell id="EpUKWXdDwevD_ZlKv4YP-1565" value="小怪" style="rounded=1;fillColor=#60a917;strokeColor=#2D7600;strokeWidth=3;shadow=0;html=1;fontColor=#ffffff;" vertex="1" parent="1">
          <mxGeometry x="1500" y="1480" width="120" height="40" as="geometry" />
        </mxCell>
        <mxCell id="EpUKWXdDwevD_ZlKv4YP-1568" value="BOSS" style="rounded=1;fillColor=#60a917;strokeColor=#2D7600;strokeWidth=3;shadow=0;html=1;fontColor=#ffffff;" vertex="1" parent="1">
          <mxGeometry x="1440" y="1550" width="120" height="40" as="geometry" />
        </mxCell>
      </root>
    </mxGraphModel>
  </diagram>
</mxfile>
